<?xml version="1.0" encoding="UTF-8"?>
<svg version="1.1" xmlns="http://www.w3.org/2000/svg" width="512" height="512">
<path d="M0 0 C3.06937139 -0.0096696 6.13806117 -0.04076884 9.20727539 -0.07226562 C25.84929859 -0.16221798 42.04102161 1.35094324 58.09985352 5.92773438 C59.45300659 6.30575195 59.45300659 6.30575195 60.83349609 6.69140625 C91.5027238 15.60204211 120.33084651 32.90845197 136.67016602 61.05273438 C147.31013744 81.15639897 148.43029274 103.82300201 141.91235352 125.42773438 C133.32135109 151.71678599 113.87264452 172.10191376 89.94750977 185.34570312 C72.33883557 194.24023438 72.33883557 194.24023438 64.03735352 194.24023438 C81.34107997 228.05561529 117.89682749 243.12676114 151.03735352 257.24023438 C146.9628371 280.8345909 139.64177047 305.03945346 120.22094727 320.74804688 C107.62608727 329.35491006 95.82600402 331.44950492 81.02758789 328.67041016 C66.02725929 325.42818996 51.35811882 317.52680252 40.03735352 307.24023438 C39.1337207 306.42941406 38.23008789 305.61859375 37.29907227 304.78320312 C19.4924675 287.96174938 11.76987006 266.17752051 11.04516602 241.87304688 C10.77209125 217.77167002 17.76657398 194.53799539 34.45288086 176.80712891 C38.13713468 173.16374816 42.27878719 170.09780875 46.41625977 166.99414062 C52.54811213 162.3915195 58.27092978 157.28697964 64.03735352 152.24023438 C65.34639648 151.10134766 65.34639648 151.10134766 66.68188477 149.93945312 C86.14605066 134.21987624 86.14605066 134.21987624 97.37329102 113.43554688 C97.45457171 107.04688401 97.44979356 103.03088357 93.03735352 98.24023438 C89.06902382 95.59468124 85.74904508 94.85650444 80.96704102 95.53320312 C72.90209984 97.68674476 67.09561821 103.50728148 61.08813477 109.03320312 C43.22617655 125.34531681 20.10725721 136.11233769 -3.15014648 142.05273438 C-3.90835693 142.24762451 -4.66656738 142.44251465 -5.44775391 142.64331055 C-19.66475257 146.05581134 -33.77358661 146.58474267 -48.30493164 146.62109375 C-50.58720891 146.63064503 -52.86816803 146.66437692 -55.15014648 146.70117188 C-55.83254395 146.6961264 -56.51494141 146.69108093 -57.21801758 146.68588257 C-62.59444282 146.7952885 -65.60961817 148.3090051 -69.96264648 151.24023438 C-73.14390963 155.05775015 -74.10326013 159.32754528 -73.96264648 164.24023438 C-72.84347986 170.22577729 -70.82372674 174.39658952 -65.96264648 178.24023438 C-61.33826887 180.95646205 -57.10792356 181.88675329 -51.83764648 182.36523438 C-50.6873999 182.4819751 -50.6873999 182.4819751 -49.51391602 182.60107422 C-40.35180324 183.48059279 -31.15720016 183.87552348 -21.96264648 184.24023438 C-22.62632401 188.87864674 -24.43508081 192.88363738 -26.36499023 197.10742188 C-26.88867691 198.26957214 -26.88867691 198.26957214 -27.42294312 199.4552002 C-28.57659746 202.01103304 -29.73805821 204.56322639 -30.90014648 207.11523438 C-31.71247427 208.9076085 -32.52456378 210.70009063 -33.33642578 212.49267578 C-35.45104706 217.15601348 -37.57388633 221.81555834 -39.70007324 226.47363281 C-40.92403932 229.1556368 -42.14614971 231.8384795 -43.36791992 234.52148438 C-50.76757802 250.75842976 -58.21059119 266.97812882 -66.08764648 282.99023438 C-66.57144775 283.98845215 -67.05524902 284.98666992 -67.55371094 286.01513672 C-76.77912789 304.47232968 -90.31980034 318.10104799 -109.96264648 325.24023438 C-117.51168635 327.45442127 -124.8833585 326.55990049 -131.96264648 323.24023438 C-136.9053599 320.30045058 -139.15386019 316.66659327 -140.96264648 311.24023438 C-142.92409361 303.0378191 -141.99939636 294.80403701 -140.46264648 286.61523438 C-140.28596436 285.67196289 -140.10928223 284.72869141 -139.92724609 283.75683594 C-134.61556071 256.54947007 -126.13822072 230.13958608 -117.75958252 203.75860596 C-117.0094691 201.38819699 -116.26624061 199.01578829 -115.52661133 196.64208984 C-106.33696439 167.15371095 -95.67874488 138.20244261 -84.96264648 109.24023438 C-84.58398438 108.21613464 -84.20532227 107.19203491 -83.81518555 106.13690186 C-81.43730319 99.70909024 -79.04858599 93.28540224 -76.65014648 86.86523438 C-76.20836563 85.68022842 -76.20836563 85.68022842 -75.75765991 84.47128296 C-71.71117439 73.63365323 -67.42621825 62.91278664 -62.96264648 52.24023438 C-63.86313721 52.39411621 -64.76362793 52.54799805 -65.69140625 52.70654297 C-72.45662652 53.83176335 -79.10995021 54.49510384 -85.96264648 54.61523438 C-86.66768311 54.64101562 -87.37271973 54.66679687 -88.09912109 54.69335938 C-93.19666488 54.71277628 -96.09552436 53.52038261 -99.96264648 50.24023438 C-102.90388099 45.9434744 -102.6206221 41.24359063 -101.96264648 36.24023438 C-99.39298365 27.31524469 -95.31806032 19.78524888 -87.47827148 14.59570312 C-61.76124008 0.56500229 -28.55269354 0.05414972 0 0 Z M57.03735352 27.24023438 C60.22026925 28.92664796 63.46285315 30.14676632 66.84985352 31.36523438 C91.67971392 40.9301526 110.14149552 57.24500353 121.0859375 81.85717773 C122.43572286 84.97204038 123.74743623 88.10009199 125.03735352 91.24023438 C127.36626714 84.65449849 123.12760412 77.51285305 120.37329102 71.54101562 C115.91245127 62.3807001 110.29153805 55.33694746 103.03735352 48.24023438 C102.34254883 47.51320313 101.64774414 46.78617188 100.93188477 46.03710938 C90.52152306 35.80797253 73.85578985 27.60363549 59.11547852 27.15039062 C58.42969727 27.18003906 57.74391602 27.2096875 57.03735352 27.24023438 Z M-23.96264648 42.24023438 C-26.7158602 47.09884681 -26.26916703 51.98148918 -24.96264648 57.24023438 C-23.5208881 59.91507558 -21.94394793 61.90331472 -19.96264648 64.24023438 C-21.10913784 66.95012303 -22.33668346 68.65364367 -24.33764648 70.86523438 C-30.07942987 77.69744547 -31.65533024 85.28086126 -31.34545898 94.06054688 C-30.38943146 102.00142855 -27.0484612 108.9739223 -20.96264648 114.24023438 C-12.03523619 120.26663701 -3.29393888 122.73524606 7.43188477 120.81054688 C15.9701788 118.3881237 22.58831218 112.91907506 27.06469727 105.33007812 C30.97622637 96.92578868 31.64153946 87.72106401 28.47485352 78.92773438 C24.03722546 69.2841257 16.90626924 63.61824899 7.09985352 59.99023438 C-3.32990833 56.09995708 -13.57479536 51.31330213 -21.64233398 43.49023438 C-22.78064868 42.12565 -22.78064868 42.12565 -23.96264648 42.24023438 Z M126.03735352 91.24023438 C127.03735352 94.24023438 127.03735352 94.24023438 127.03735352 94.24023438 Z M127.03735352 96.24023438 C128.03735352 98.24023438 128.03735352 98.24023438 128.03735352 98.24023438 Z " fill="#4F46E5" transform="translate(240.962646484375,103.759765625)"/>
<path d="M0 0 C5.23017604 4.32058021 9.53648559 10.43324331 10.23828125 17.34765625 C10.45858737 25.4062222 9.36055625 31.97554567 4.08203125 38.296875 C-1.7897653 43.99199802 -7.56964196 46.6888047 -15.7265625 47.15625 C-22.92491603 46.91292537 -28.48614829 44.62545528 -34 40 C-39.5861988 33.62733842 -42.33217524 27.08471531 -41.875 18.5625 C-40.84838775 10.13043759 -37.74226288 4.81109326 -31.12890625 -0.5234375 C-21.1073559 -7.47416416 -9.97701621 -6.56097262 0 0 Z " fill="#73319F" transform="translate(432,117)"/>
<path d="M0 0 C5.05073893 5.33133554 7.55207967 11.15242633 7.8125 18.5 C7.49103921 25.45605425 5.35954437 29.86635264 0.9375 35.125 C-5.52554384 40.53592043 -11.27382003 42.94007866 -19.75 42.375 C-27.84141938 40.24650283 -33.48594229 36.49983517 -37.76953125 29.27734375 C-40.87321633 23.25545277 -40.82711041 15.98382319 -38.9140625 9.57421875 C-35.63395104 2.32054944 -30.93301512 -1.66699292 -23.8125 -5 C-14.42380307 -6.9160606 -8.1102267 -4.79240669 0 0 Z " fill="#FE006C" transform="translate(393.75,286.625)"/>
<path d="M0 0 C4.03459598 2.65546657 6.42652187 5.3355327 7.90234375 10.0234375 C8.52920782 15.20290187 8.71901569 20.20259362 6.33984375 24.9609375 C2.63449414 29.61637675 -1.18271168 31.86863449 -7.03515625 32.9609375 C-11.52370934 33.30888735 -15.23273866 32.31590468 -19.09765625 30.0234375 C-23.58938627 26.05479503 -25.80562085 21.60308357 -26.47265625 15.7109375 C-25.88271851 9.90988303 -23.83650464 5.71770004 -19.66015625 1.6484375 C-13.31451961 -2.37562476 -7.04058805 -3.27774118 0 0 Z " fill="#FFCD01" transform="translate(140.09765625,182.9765625)"/>
<path d="M0 0 C4.76151547 2.49315402 7.62166172 5.93249605 10.1328125 10.578125 C11.92130726 16.98689789 11.27009164 21.78978922 8.0859375 27.5078125 C5.30803577 31.56643516 1.57453693 33.98606379 -3.1171875 35.265625 C-8.86989754 35.87398209 -13.16772564 35.52777032 -18.1171875 32.265625 C-22.59559936 28.62040604 -24.94459348 24.86917165 -26.1171875 19.265625 C-26.38604468 13.63037843 -24.73342571 8.596701 -21.1171875 4.265625 C-15.18331889 -1.27638436 -7.71124143 -2.67474795 0 0 Z M-18.9921875 7.890625 C-21.62579446 12.07341253 -22.4173026 15.34903355 -22.1171875 20.265625 C-20.29244305 25.63848367 -17.16916679 28.73963535 -12.1171875 31.265625 C-7.61075039 32.00273739 -3.70540194 32.22888351 0.28515625 29.80859375 C4.79656065 25.93351764 6.6857843 23.62996335 7.1953125 17.515625 C7.12506609 12.74764998 5.6740643 10.11302614 2.8828125 6.265625 C-4.50521913 0.27532909 -12.27862282 1.76084856 -18.9921875 7.890625 Z " fill="#FFCD01" transform="translate(389.1171875,79.734375)"/>
<path d="M0 0 C2.8100346 1.79363911 4.50940468 3.01880935 6 6 C6.45487581 10.54875813 6.71689456 13.67392638 3.9375 17.4375 C0.41360794 20.5115335 -1.34975862 21.08158318 -6 21 C-9.91908675 19.7187601 -11.55932365 18.62547612 -13.9375 15.25 C-15.25603257 11.21684156 -15.2545729 9.05891233 -14 5 C-9.60935655 -0.03317664 -6.58282375 -0.94040339 0 0 Z " fill="#64D86F" transform="translate(351,98)"/>
<path d="M0 0 C2.9838283 1.98921886 4.60276841 3.38502568 5.4765625 6.9375 C5.75890933 10.86063492 5.21925086 12.67112371 3 16 C-0.34947502 18.23298334 -2.13000263 18.69682873 -6.06640625 18.4140625 C-9.3144841 17.71851452 -10.87051798 16.51666056 -13 14 C-14.14888518 10.05070721 -14.43129396 7.97041141 -12.75 4.1875 C-9.21906388 -0.22617016 -5.39354163 -0.99686081 0 0 Z M-8.25 4.625 C-10.31885134 6.92779775 -10.31885134 6.92779775 -9.9375 10.125 C-9.23305313 13.29174932 -9.23305313 13.29174932 -6 15 C-2.67759676 14.6758631 -1.39223697 14.39223697 1 12 C1.50010524 9.04230823 1.50010524 9.04230823 1 6 C-0.7109211 4.02901574 -0.7109211 4.02901574 -3 3 C-6.05723545 2.70725472 -6.05723545 2.70725472 -8.25 4.625 Z " fill="#0EC013" transform="translate(394,255)"/>
<path d="M0 0 C3.33657872 2.91950638 4.81898463 4.70703309 5.4375 9.125 C4.72163743 13.82923977 4.72163743 13.82923977 3 16 C-0.71854447 18.14531412 -2.90082007 19.17242038 -7.1875 18.5 C-10.5211774 16.72203872 -12.07724498 15.25389311 -14 12 C-14.6602967 8.03821982 -14.36550574 6.54825861 -12.125 3.1875 C-8.60528999 -0.43573089 -4.90639641 -0.98503178 0 0 Z M-8.1875 4.125 C-10.28085041 5.93572823 -10.28085041 5.93572823 -10.5 9 C-10.26252034 12.04015703 -10.26252034 12.04015703 -8.3125 13.9375 C-5.38550346 15.28233625 -4.01415011 15.03115662 -1 14 C1.28930236 12.11861241 1.28930236 12.11861241 1.375 9.0625 C1.30457401 5.93830843 1.30457401 5.93830843 -0.8125 4.125 C-3.73563463 2.62167362 -5.26436537 2.62167362 -8.1875 4.125 Z " fill="#FF0069" transform="translate(103,170)"/>
</svg>
